<?xml version="1.0" encoding="UTF-8"?>
<svg width="183px" height="19px" viewBox="0 0 183 19" version="1.1" xmlns="http://www.w3.org/2000/svg" xmlns:xlink="http://www.w3.org/1999/xlink">
    <!-- Generator: Sketch 46.2 (44496) - http://www.bohemiancoding.com/sketch -->
    <title>Light Background</title>
    <desc>Created with Sketch.</desc>
    <defs></defs>
    <g id="Page-1" stroke="none" stroke-width="1" fill="none" fill-rule="evenodd">
        <g id="Light-Background">
            <polygon id="&gt;-copy-2" fill="#061E2E" points="9.35 8.236 9.35 10.128 0.99 15.342 0 13.978 7.766 9.182 0 4.408 0.902 3"></polygon>
            <path d="M24.634,9.504 L18.914,9.504 L18.914,16.698 L17,16.698 L17,1.54 L18.914,1.54 L18.914,7.942 L24.634,7.942 L24.634,1.54 L26.548,1.54 L26.548,16.698 L24.634,16.698 L24.634,9.504 Z M37.881,6.479 C38.7390043,7.55700539 39.168,9.02732402 39.168,10.89 C39.168,12.7086758 38.731671,14.1716611 37.859,15.279 C36.986329,16.3863389 35.7580079,16.94 34.174,16.94 C32.5753253,16.94 31.3433376,16.4010054 30.478,15.323 C29.6126623,14.2449946 29.18,12.774676 29.18,10.912 C29.18,9.0786575 29.616329,7.6120055 30.489,6.512 C31.361671,5.4119945 32.5973253,4.862 34.196,4.862 C35.7946746,4.862 37.0229957,5.40099461 37.881,6.479 Z M31.93,7.502 C31.4313308,8.25000374 31.182,9.38665904 31.182,10.912 C31.182,12.437341 31.4276642,13.5703296 31.919,14.311 C32.4103358,15.0516704 33.1619949,15.422 34.174,15.422 C35.186005,15.422 35.9376642,15.0516704 36.429,14.311 C36.9203358,13.5703296 37.166,12.4300077 37.166,10.89 C37.166,9.36465904 36.9203358,8.23167037 36.429,7.491 C35.9376642,6.75032963 35.1933383,6.38 34.196,6.38 C33.1839949,6.38 32.4286691,6.75399626 31.93,7.502 Z M51.425,5.555 C51.8430021,6.01700231 52.052,6.85666058 52.052,8.074 L52.052,16.698 L50.358,16.698 L50.358,8.382 C50.358,7.5753293 50.3066672,7.02900143 50.204,6.743 C50.1013328,6.45699857 49.852002,6.314 49.456,6.314 C48.7079962,6.314 48.0333363,6.77599538 47.432,7.7 L47.432,16.698 L45.716,16.698 L45.716,8.382 C45.716,7.5753293 45.6646672,7.02900143 45.562,6.743 C45.4593328,6.45699857 45.210002,6.314 44.814,6.314 C44.0659962,6.314 43.3913363,6.77599538 42.79,7.7 L42.79,16.698 L41.096,16.698 L41.096,5.104 L42.526,5.104 L42.658,6.468 C43.0100017,5.9546641 43.3803314,5.55866806 43.769,5.28 C44.1576686,5.00133194 44.6233306,4.862 45.166,4.862 C46.2513387,4.862 46.9479984,5.3753282 47.256,6.402 C47.6080017,5.90333084 47.981998,5.52200132 48.378,5.258 C48.774002,4.99399868 49.2506639,4.862 49.808,4.862 C50.4680033,4.862 51.0069979,5.09299769 51.425,5.555 Z M57.049,14.432 C57.6723364,15.0773366 58.4606619,15.4 59.414,15.4 C59.9860028,15.4 60.5103309,15.3156675 60.987,15.147 C61.463669,14.9783325 61.9733306,14.7180018 62.516,14.366 L63.374,15.598 C62.8313306,16.0233355 62.2116701,16.3533322 61.515,16.588 C60.8183298,16.8226678 60.1180035,16.94 59.414,16.94 C57.7419916,16.94 56.440338,16.3936721 55.509,15.301 C54.577662,14.2083279 54.112,12.7453425 54.112,10.912 C54.112,9.75332754 54.3173312,8.71567125 54.728,7.799 C55.1386687,6.88232875 55.7253295,6.16366927 56.488,5.643 C57.2506704,5.12233073 58.1379949,4.862 59.15,4.862 C60.616674,4.862 61.7716624,5.37166157 62.615,6.391 C63.4583375,7.41033843 63.88,8.7999912 63.88,10.56 C63.88,10.897335 63.8653334,11.2273317 63.836,11.55 L56.048,11.55 C56.0920002,12.8260064 56.4256635,13.7866634 57.049,14.432 Z M56.994,7.337 C56.4366638,7.97500319 56.1213337,8.90999384 56.048,10.142 L62.076,10.142 C62.0613332,8.92466058 61.7973359,7.99333656 61.284,7.348 C60.7706641,6.70266344 60.0666711,6.38 59.172,6.38 C58.2773288,6.38 57.5513361,6.69899681 56.994,7.337 Z M72.144,4.862 C73.6253407,4.862 74.7179964,5.38999472 75.422,6.446 C76.1260035,7.50200528 76.478,8.9833238 76.478,10.89 C76.478,12.7086758 76.0746707,14.1716611 75.268,15.279 C74.4613293,16.3863389 73.3320072,16.94 71.88,16.94 C70.5453266,16.94 69.4966704,16.4560048 68.734,15.488 L68.602,16.698 L66.974,16.698 L66.974,0.44 L68.822,0.22 L68.822,6.622 C69.7166711,5.4486608 70.8239934,4.862 72.144,4.862 Z M73.695,14.3 C74.2156692,13.5373295 74.476,12.4006742 74.476,10.89 C74.476,9.39399252 74.2450023,8.26467048 73.783,7.502 C73.3209976,6.73932952 72.6353378,6.358 71.726,6.358 C71.1393304,6.358 70.6003357,6.53399824 70.109,6.886 C69.6176642,7.23800176 69.1886685,7.67799736 68.822,8.206 L68.822,13.948 C69.1300015,14.4173357 69.511331,14.7839987 69.966,15.048 C70.4206689,15.3120013 70.9193306,15.444 71.462,15.444 C72.4300048,15.444 73.1743307,15.0626705 73.695,14.3 Z M88.8339999,5.104 L88.5699999,9.042 L87.0739999,9.042 L87.0739999,6.556 L86.9639999,6.556 C85.1746577,6.556 83.9060037,7.83198724 83.1579999,10.384 L83.1579999,15.268 L85.5119999,15.268 L85.5119999,16.698 L79.4839999,16.698 L79.4839999,15.268 L81.3099999,15.268 L81.3099999,6.534 L79.4839999,6.534 L79.4839999,5.104 L82.6959999,5.104 L83.0479999,7.854 C83.5173356,6.85666168 84.07833,6.10866916 84.7309999,5.61 C85.3836699,5.11133084 86.2086616,4.862 87.2059999,4.862 C87.6753356,4.862 88.2179969,4.94266586 88.8339999,5.104 Z M94.2489999,14.432 C94.8723364,15.0773366 95.6606618,15.4 96.6139999,15.4 C97.1860028,15.4 97.7103309,15.3156675 98.1869999,15.147 C98.663669,14.9783325 99.1733305,14.7180018 99.7159999,14.366 L100.574,15.598 C100.031331,16.0233355 99.4116701,16.3533322 98.7149999,16.588 C98.0183298,16.8226678 97.3180034,16.94 96.6139999,16.94 C94.9419916,16.94 93.6403379,16.3936721 92.7089999,15.301 C91.7776619,14.2083279 91.3119999,12.7453425 91.3119999,10.912 C91.3119999,9.75332754 91.5173312,8.71567125 91.9279999,7.799 C92.3386686,6.88232875 92.9253294,6.16366927 93.6879999,5.643 C94.4506704,5.12233073 95.3379949,4.862 96.3499999,4.862 C97.8166739,4.862 98.9716624,5.37166157 99.8149999,6.391 C100.658337,7.41033843 101.08,8.7999912 101.08,10.56 C101.08,10.897335 101.065333,11.2273317 101.036,11.55 L93.2479999,11.55 C93.2920001,12.8260064 93.6256635,13.7866634 94.2489999,14.432 Z M94.1939999,7.337 C93.6366638,7.97500319 93.3213336,8.90999384 93.2479999,10.142 L99.2759999,10.142 C99.2613332,8.92466058 98.9973358,7.99333656 98.4839999,7.348 C97.970664,6.70266344 97.2666711,6.38 96.3719999,6.38 C95.4773288,6.38 94.751336,6.69899681 94.1939999,7.337 Z M110.158,16.698 L108.64,8.206 L107.012,16.698 L104.46,16.698 L102.37,5.104 L104.24,5.104 L105.736,15.554 L107.584,6.578 L109.762,6.578 L111.5,15.554 L112.996,5.104 L114.778,5.104 L112.776,16.698 L110.158,16.698 Z M128.122,14.762 C127.623331,15.495337 126.908338,16.0636647 125.977,16.467 C125.045662,16.8703354 123.942006,17.072 122.666,17.072 C120.143321,17.072 118.134007,16.338674 116.638,14.872 L118.464,12.848 C119.622672,13.8746718 120.993992,14.388 122.578,14.388 C123.34067,14.388 123.952998,14.2230017 124.415,13.893 C124.877002,13.5629984 125.108,13.1046696 125.108,12.518 C125.108,11.9606639 124.913669,11.5243349 124.525,11.209 C124.136331,10.8936651 123.414005,10.5746683 122.358,10.252 C120.568658,9.70933062 119.300004,9.071337 118.552,8.338 C117.803996,7.604663 117.43,6.65867246 117.43,5.5 C117.43,4.59066212 117.682997,3.79867004 118.189,3.124 C118.695002,2.44932996 119.384329,1.93600176 120.257,1.584 C121.129671,1.23199824 122.101328,1.056 123.172,1.056 C125.416011,1.056 127.23466,1.7159934 128.628,3.036 L126.934,4.994 C126.420664,4.56866454 125.867003,4.24966773 125.273,4.037 C124.678997,3.82433227 124.06667,3.718 123.436,3.718 C122.731996,3.718 122.178335,3.84633205 121.775,4.103 C121.371665,4.35966795 121.17,4.72999758 121.17,5.214 C121.17,5.53666828 121.261666,5.8079989 121.445,6.028 C121.628334,6.2480011 121.932664,6.45333238 122.358,6.644 C122.783335,6.83466762 123.421329,7.06199868 124.272,7.326 C125.826674,7.79533568 126.981663,8.40032963 127.737,9.141 C128.492337,9.88167037 128.87,10.9119934 128.87,12.232 C128.87,13.1853381 128.620669,14.028663 128.122,14.762 Z M139.543,6.303 C140.547672,7.42500561 141.05,8.93199054 141.05,10.824 C141.05,12.7893432 140.551338,14.3219945 139.554,15.422 C138.556662,16.5220055 137.163342,17.072 135.374,17.072 C133.584658,17.072 132.191338,16.5256721 131.194,15.433 C130.196662,14.3403279 129.698,12.8113432 129.698,10.846 C129.698,9.5993271 129.921664,8.51033799 130.369,7.579 C130.816335,6.64766201 131.468996,5.92166927 132.327,5.401 C133.185004,4.88033073 134.200661,4.62 135.374,4.62 C137.148675,4.62 138.538328,5.18099439 139.543,6.303 Z M133.79,8.063 C133.452665,8.64233623 133.284,9.56999362 133.284,10.846 C133.284,12.1366731 133.452665,13.0716638 133.79,13.651 C134.127335,14.2303362 134.65533,14.52 135.374,14.52 C136.09267,14.52 136.620665,14.2266696 136.958,13.64 C137.295335,13.0533304 137.464,12.1146731 137.464,10.824 C137.464,9.56266036 137.295335,8.64233623 136.958,8.063 C136.620665,7.48366377 136.09267,7.194 135.374,7.194 C134.65533,7.194 134.127335,7.48366377 133.79,8.063 Z M154.154,0.748 L153.186,3.014 C152.437996,2.7206652 151.609338,2.574 150.7,2.574 C150.010663,2.574 149.515668,2.69866542 149.215,2.948 C148.914332,3.19733458 148.764,3.60799714 148.764,4.18 L148.764,5.742 L152.57,5.742 L152.174,8.162 L148.764,8.162 L148.764,16.698 L145.31,16.698 L145.31,8.162 L142.846,8.162 L142.846,5.742 L145.31,5.742 L145.31,4.07 C145.31,2.86732732 145.731662,1.88833711 146.575,1.133 C147.418337,0.37766289 148.609992,0 150.15,0 C151.646007,0 152.980661,0.24933084 154.154,0.748 Z M161.802,17.072 C160.305992,17.072 159.180337,16.6906705 158.425,15.928 C157.669663,15.1653295 157.292,14.0946736 157.292,12.716 L157.292,7.414 L154.85,7.414 L154.85,5.016 L157.292,5.016 L157.292,2.486 L160.768,2.068 L160.768,5.016 L164.53,5.016 L164.178,7.414 L160.768,7.414 L160.768,12.716 C160.768,13.2880029 160.899999,13.6986654 161.164,13.948 C161.428001,14.1973346 161.85333,14.322 162.44,14.322 C163.173337,14.322 163.85533,14.1460018 164.486,13.794 L165.63,16.016 C164.529994,16.7200035 163.254007,17.072 161.802,17.072 Z" id="HomebrewSoft-Copy-3" fill="#061E2E"></path>
            <rect id="Rectangle-15-Copy-2" fill="#FFD30D" x="170" y="17" width="13" height="2"></rect>
        </g>
    </g>
</svg>